<?xml version="1.0" encoding="utf-8"?>
<svg version="1.1" xmlns="http://www.w3.org/2000/svg" width="1024" height="1024">
  <path d="M0 0 C2.34634715 -0.00346613 4.69269266 -0.00823704 7.03903484 -0.01418173 C13.41880489 -0.02659021 19.79843859 -0.02056807 26.17820883 -0.01122308 C32.37339077 -0.00360958 38.56856031 -0.01315162 44.76373854 -0.02066517 C58.20040815 -0.03638719 71.63703472 -0.0351234 85.07370833 -0.02642844 C96.83294678 -0.01885708 108.59216952 -0.01692312 120.35140991 -0.02049637 C121.133936 -0.02072552 121.91646209 -0.02095468 122.7227011 -0.02119078 C125.8998884 -0.02212492 129.0770757 -0.02308013 132.25426299 -0.02407007 C162.00852313 -0.03323006 191.762756 -0.02495374 221.51701193 -0.00877938 C247.9040154 0.00545554 274.29097542 0.00418158 300.67797852 -0.01016235 C330.38069353 -0.02625505 360.08338448 -0.03258022 389.78610325 -0.02332556 C392.95722516 -0.02236353 396.12834707 -0.021425 399.29946899 -0.02049637 C400.08017823 -0.02025914 400.86088746 -0.0200219 401.66525456 -0.01977748 C413.41196467 -0.01637694 425.1586573 -0.02033365 436.90536499 -0.02793503 C450.27297942 -0.03654262 463.6405444 -0.03430512 477.00815272 -0.0180928 C483.82013917 -0.01010184 490.63203256 -0.00706215 497.44401932 -0.01704025 C503.69386128 -0.02605605 509.94353493 -0.02094216 516.19336188 -0.0051076 C518.4400388 -0.00178871 520.68673029 -0.00338759 522.93339765 -0.01073496 C542.15432025 -0.06871432 561.09778791 1.56530915 579.82543945 6.06845093 C581.43443115 6.44973145 581.43443115 6.44973145 583.07592773 6.8387146 C614.71958985 14.61349583 644.90997672 28.58011143 670.82543945 48.38095093 C671.66848633 49.01202759 671.66848633 49.01202759 672.52856445 49.65585327 C682.23895959 56.93044828 691.0918943 64.9700737 699.82543945 73.38095093 C700.61950195 74.13376343 701.41356445 74.88657593 702.23168945 75.66220093 C707.07000499 80.34691915 711.34253447 85.42533293 715.50805664 90.71298218 C716.43293021 91.88398593 717.36381084 93.05025823 718.29907227 94.21298218 C754.6290169 139.44976914 772.39510145 194.8517471 772.20639038 252.55551147 C772.20985651 254.90185862 772.21462742 257.24820414 772.22057211 259.59454632 C772.23298059 265.97431636 772.22695845 272.35395006 772.21761346 278.7337203 C772.20999996 284.92890225 772.219542 291.12407179 772.22705556 297.31925002 C772.24277757 310.75591962 772.24151379 324.19254619 772.23281882 337.6292198 C772.22524746 349.38845825 772.2233135 361.147681 772.22688675 372.90692139 C772.2271159 373.68944748 772.22734506 374.47197357 772.22758116 375.27821257 C772.2285153 378.45539988 772.22947051 381.63258718 772.23046045 384.80977447 C772.23962044 414.56403461 772.23134412 444.31826747 772.21516976 474.0725234 C772.20093484 500.45952687 772.2022088 526.8464869 772.21655273 553.23348999 C772.23264543 582.936205 772.2389706 612.63889595 772.22971594 642.34161472 C772.22875391 645.51273663 772.22781538 648.68385855 772.22688675 651.85498047 C772.2265309 653.02604432 772.2265309 653.02604432 772.22616786 654.22076603 C772.22276732 665.96747615 772.22672403 677.71416877 772.23432541 689.46087646 C772.242933 702.82849089 772.2406955 716.19605587 772.22448318 729.5636642 C772.21649222 736.37565064 772.21345253 743.18754403 772.22343063 749.99953079 C772.23244643 756.24937276 772.22733254 762.49904641 772.21149798 768.74887335 C772.20817909 770.99555028 772.20977797 773.24224177 772.21712534 775.48890913 C772.2751047 794.70983172 770.64108123 813.65329938 766.13793945 832.38095093 C765.88375244 833.45361206 765.62956543 834.52627319 765.36767578 835.63143921 C757.59289455 867.27510133 743.62627895 897.46548819 723.82543945 923.38095093 C723.40472168 923.94298218 722.98400391 924.50501343 722.55053711 925.08407593 C715.2759421 934.79447107 707.23631668 943.64740578 698.82543945 952.38095093 C697.6962207 953.57204468 697.6962207 953.57204468 696.54418945 954.78720093 C691.85947123 959.62551647 686.78105745 963.89804594 681.4934082 968.06356812 C680.32240445 968.98844169 679.15613215 969.91932231 677.9934082 970.85458374 C632.75662124 1007.18452838 577.35464328 1024.95061293 519.65087891 1024.76190186 C517.30453176 1024.76536798 514.95818624 1024.77013889 512.61184406 1024.77608359 C506.23207402 1024.78849207 499.85244032 1024.78246993 493.47267008 1024.77312493 C487.27748813 1024.76551144 481.08231859 1024.77505348 474.88714036 1024.78256703 C461.45047076 1024.79828905 448.01384419 1024.79702526 434.57717058 1024.78833029 C422.81793213 1024.78075893 411.05870938 1024.77882497 399.29946899 1024.78239822 C398.5169429 1024.78262738 397.73441681 1024.78285653 396.92817781 1024.78309263 C393.7509905 1024.78402678 390.5738032 1024.78498199 387.39661591 1024.78597193 C357.64235577 1024.79513191 327.88812291 1024.7868556 298.13386698 1024.77068123 C271.74686351 1024.75644631 245.35990348 1024.75772028 218.97290039 1024.77206421 C189.27018538 1024.78815691 159.56749443 1024.79448208 129.86477566 1024.78522742 C126.69365375 1024.78426539 123.52253183 1024.78332686 120.35140991 1024.78239822 C119.57070068 1024.78216099 118.78999144 1024.78192376 117.98562435 1024.78167934 C106.23891423 1024.77827879 94.49222161 1024.78223551 82.74551392 1024.78983688 C69.37789949 1024.79844447 56.01033451 1024.79620698 42.64272618 1024.77999465 C35.83073974 1024.7720037 29.01884635 1024.76896401 22.20685959 1024.77894211 C15.95701763 1024.7879579 9.70734397 1024.78284402 3.45751703 1024.76700945 C1.21084011 1024.76369056 -1.03585138 1024.76528944 -3.28251874 1024.77263682 C-22.50344134 1024.83061617 -41.446909 1023.19659271 -60.17456055 1018.69345093 C-61.24722168 1018.43926392 -62.31988281 1018.1850769 -63.42504883 1017.92318726 C-95.06871095 1010.14840603 -125.25909781 996.18179043 -151.17456055 976.38095093 C-151.7365918 975.96023315 -152.29862305 975.53951538 -152.87768555 975.10604858 C-162.58808069 967.83145358 -171.4410154 959.79182815 -180.17456055 951.38095093 C-180.96862305 950.62813843 -181.76268555 949.87532593 -182.58081055 949.09970093 C-187.41912608 944.41498271 -191.69165556 939.33656893 -195.85717773 934.04891968 C-196.78205131 932.87791593 -197.71293193 931.71164362 -198.64819336 930.54891968 C-234.978138 885.31213272 -252.74422255 829.91015475 -252.55551147 772.20639038 C-252.5589776 769.86004323 -252.56374851 767.51369772 -252.56969321 765.16735554 C-252.58210169 758.78758549 -252.57607955 752.40795179 -252.56673455 746.02818155 C-252.55912105 739.83299961 -252.56866309 733.63783007 -252.57617665 727.44265184 C-252.59189867 714.00598223 -252.59063488 700.56935566 -252.58193991 687.13268206 C-252.57436855 675.37344361 -252.57243459 663.61422086 -252.57600784 651.85498047 C-252.576237 651.07245438 -252.57646615 650.28992829 -252.57670225 649.48368929 C-252.57763639 646.30650198 -252.57859161 643.12931468 -252.57958154 639.95212739 C-252.58874153 610.19786725 -252.58046522 580.44363438 -252.56429085 550.68937846 C-252.55005593 524.30237498 -252.5513299 497.91541496 -252.56567383 471.52841187 C-252.58176653 441.82569685 -252.58809169 412.1230059 -252.57883704 382.42028713 C-252.577875 379.24916522 -252.57693648 376.07804331 -252.57600784 372.90692139 C-252.57577061 372.12621215 -252.57553338 371.34550292 -252.57528896 370.54113583 C-252.57188841 358.79442571 -252.57584512 347.04773308 -252.5834465 335.30102539 C-252.59205409 321.93341096 -252.5898166 308.56584598 -252.57360427 295.19823766 C-252.56561332 288.38625121 -252.56257363 281.57435782 -252.57255173 274.76237106 C-252.58156752 268.5125291 -252.57645364 262.26285545 -252.56061907 256.0130285 C-252.55730018 253.76635158 -252.55889906 251.51966009 -252.56624644 249.27299273 C-252.62422579 230.05207013 -250.99020233 211.10860247 -246.48706055 192.38095093 C-246.23287354 191.30828979 -245.97868652 190.23562866 -245.71679688 189.13046265 C-237.94201565 157.48680053 -223.97540005 127.29641366 -204.17456055 101.38095093 C-203.75384277 100.81891968 -203.333125 100.25688843 -202.8996582 99.67782593 C-195.6250632 89.96743079 -187.58543777 81.11449608 -179.17456055 72.38095093 C-178.42174805 71.58688843 -177.66893555 70.79282593 -176.89331055 69.97470093 C-172.20859233 65.13638539 -167.13017855 60.86385591 -161.8425293 56.69833374 C-160.67152554 55.77346017 -159.50525324 54.84257954 -158.3425293 53.90731812 C-113.10574234 17.57737348 -57.70376437 -0.18871107 0 0 Z " transform="translate(252.174560546875,-0.380950927734375)" fill="#06B053"/>
  <g>
    <path d="M 486.677 122.709 C 487.339 122.702 488.002 122.696 488.684 122.689 C 490.869 122.67 493.053 122.666 495.238 122.664 C 496.763 122.657 498.287 122.65 499.812 122.643 C 503.007 122.631 506.202 122.628 509.397 122.629 C 513.479 122.629 517.561 122.602 521.643 122.567 C 524.792 122.545 527.942 122.541 531.091 122.542 C 532.595 122.54 534.099 122.531 535.604 122.515 C 550.489 122.376 550.489 122.376 556 127 C 560.667 134.54 557.718 146.484 557.125 154.882 C 557.036 156.178 556.947 157.473 556.856 158.808 C 556.622 162.218 556.384 165.627 556.146 169.036 C 555.902 172.529 555.662 176.022 555.422 179.515 C 554.952 186.344 554.477 193.172 554 200 C 554.94 200.054 555.88 200.108 556.848 200.163 C 591.809 202.311 637.168 208.605 667.5 227.562 C 671.484 234.036 668.72 244.842 667.793 252.089 C 667.667 253.114 667.541 254.139 667.411 255.194 C 667.144 257.352 666.874 259.509 666.601 261.666 C 666.193 264.897 665.794 268.129 665.396 271.361 C 664.752 276.577 664.076 281.789 663.388 287 C 663.007 289.947 662.655 292.897 662.307 295.848 C 662.077 297.65 661.846 299.452 661.613 301.253 C 661.48 302.477 661.48 302.477 661.344 303.724 C 660.63 308.982 659.341 311.597 655 315 C 649.516 316.978 645.358 315.055 640.187 313.062 C 638.39 312.406 636.592 311.752 634.793 311.101 C 633.847 310.756 632.902 310.411 631.927 310.055 C 585.102 293.168 525.906 281.203 478 301 C 466.966 306.24 457.472 314.27 452.898 325.769 C 449.809 336.878 451.74 347.936 457 358 C 458.763 360.94 460.672 363.486 463 366 C 463.465 366.506 463.931 367.013 464.41 367.535 C 478.203 380.763 500.628 386.627 518.25 392.395 C 529.608 396.14 540.765 400.343 551.915 404.661 C 556.275 406.346 560.647 407.994 565.027 409.626 C 617.721 429.272 668.155 451.996 694 505 C 711.955 544.459 705.881 585.494 692 625 C 689.33 632.059 686.366 638.668 682.25 645 C 681.818 645.675 681.386 646.35 680.941 647.045 C 673.898 657.926 665.925 667.645 657 677 C 656.272 677.781 655.543 678.562 654.793 679.367 C 633.597 701.467 605.581 715.198 577 725 C 576.327 725.234 575.653 725.468 574.959 725.71 C 564.163 729.395 552.786 730.854 541.549 732.582 C 539.018 732.997 536.511 733.482 534 734 C 534.013 734.844 534.013 734.844 534.026 735.705 C 534.119 747.054 533.24 758.368 532.511 769.687 C 532.334 772.445 532.168 775.204 532.011 777.964 C 531.783 781.963 531.525 785.96 531.266 789.957 C 531.199 791.19 531.132 792.423 531.063 793.694 C 530.983 794.843 530.903 795.991 530.821 797.175 C 530.759 798.181 530.697 799.188 530.633 800.226 C 529.691 804.354 527.606 806.857 524.18 809.294 C 521.115 810.286 518.344 810.27 515.124 810.29 C 514.098 810.3 514.098 810.3 513.052 810.31 C 510.798 810.329 508.544 810.333 506.289 810.335 C 504.717 810.342 503.146 810.349 501.574 810.356 C 498.28 810.368 494.987 810.371 491.693 810.37 C 487.481 810.37 483.269 810.397 479.057 810.432 C 475.811 810.454 472.565 810.458 469.318 810.457 C 467.766 810.459 466.213 810.468 464.661 810.484 C 462.485 810.503 460.311 810.497 458.135 810.485 C 456.899 810.488 455.663 810.491 454.39 810.494 C 450.297 809.897 448.169 808.625 445 806 C 434.266 784.531 444.644 757.963 446 734 C 391.88 734 337.76 734 282 734 C 281.34 728.06 280.68 722.12 280 716 C 276.621 701.482 271.037 689.128 261 678 C 260.408 677.315 259.817 676.631 259.207 675.925 C 246.278 661.894 226.888 653.331 207.984 652.531 C 205.573 652.497 203.161 652.487 200.75 652.5 C 199.481 652.505 198.212 652.511 196.904 652.517 C 177.191 652.89 160.803 659.824 146 673 C 145.291 673.626 144.582 674.252 143.852 674.898 C 129.826 688.064 122.178 707.48 121.391 726.464 C 121.351 727.289 121.311 728.114 121.27 728.964 C 121.174 730.976 121.086 732.988 121 735 C 114.935 735.099 108.871 735.171 102.805 735.219 C 100.746 735.239 98.687 735.266 96.629 735.301 C 71.236 735.72 71.236 735.72 63.798 729.014 C 58.844 723.815 56.742 719.154 56.773 711.924 C 56.773 710.723 56.773 709.522 56.773 708.285 C 56.784 706.998 56.794 705.712 56.805 704.386 C 56.808 703.048 56.811 701.71 56.813 700.372 C 56.821 696.862 56.84 693.352 56.863 689.842 C 56.883 686.256 56.892 682.67 56.902 679.084 C 56.924 672.055 56.958 665.027 57 658 C 57.615 657.998 58.231 657.997 58.865 657.995 C 65.273 657.976 71.68 657.921 78.088 657.847 C 80.479 657.824 82.869 657.809 85.26 657.804 C 88.699 657.795 92.136 657.754 95.574 657.707 C 97.176 657.712 97.176 657.712 98.81 657.718 C 104.903 657.631 104.903 657.631 110.089 654.643 C 113.493 649.998 113.493 649.998 114.437 644.5 C 114.477 643.726 114.517 642.953 114.559 642.156 C 114.186 639.779 114.186 639.779 111.799 638.392 C 108.797 636.899 106.983 636.608 103.659 636.567 C 102.618 636.547 101.578 636.528 100.505 636.507 C 99.394 636.501 98.282 636.494 97.137 636.488 C 95.99 636.47 94.842 636.452 93.661 636.433 C 90.003 636.379 86.345 636.345 82.687 636.312 C 80.205 636.279 77.723 636.244 75.24 636.209 C 69.16 636.124 63.08 636.055 57 636 C 56.967 632.674 56.947 629.349 56.93 626.023 C 56.92 625.092 56.911 624.16 56.901 623.2 C 56.817 601.871 63.95 582.45 78.625 566.812 C 93.62 552.588 113.81 544.835 132.812 537.562 C 134.021 537.088 135.229 536.614 136.473 536.125 C 143.066 533.584 149.538 531.569 156.441 530.054 C 171.291 526.907 171.291 526.907 182.667 517.625 C 187.64 509.508 190.576 500.353 193.519 491.355 C 195.66 484.89 198.482 478.752 201.312 472.562 C 201.8 471.467 202.288 470.372 202.791 469.243 C 212.634 447.213 224.18 422.212 248.09 412.781 C 261.012 408.308 274.083 408.349 287.617 408.088 C 291.301 408.016 294.978 407.913 298.659 407.738 C 322.474 406.629 322.474 406.629 328.27 410.526 C 331.719 414.211 333.539 418.305 335.186 423.021 C 336.508 426.234 338.548 428.504 340.812 431.125 C 341.55 431.988 342.287 432.852 343.047 433.742 C 343.691 434.487 344.336 435.232 345 436 C 345.856 437.081 346.71 438.165 347.562 439.25 C 350.775 442.873 354.278 445.909 358 449 C 358.508 449.43 359.016 449.861 359.539 450.305 C 361.307 451.8 363.09 453.275 364.875 454.75 C 365.47 455.25 366.066 455.751 366.679 456.267 C 370.198 459.117 373.451 461.332 377.666 463.02 C 382.852 465.208 387.439 467.524 391 472 C 394.062 480.266 393.196 489.597 392.895 498.262 C 392.795 501.735 392.802 505.208 392.797 508.683 C 392.774 515.258 392.662 521.828 392.516 528.401 C 392.304 538.034 392.213 547.669 392.137 557.304 C 392.131 558.013 392.125 558.723 392.12 559.454 C 392.108 560.87 392.097 562.286 392.087 563.702 C 392.052 567.824 391.988 571.944 391.898 576.066 C 391.831 579.239 391.788 582.412 391.74 585.586 C 391.706 586.714 391.673 587.843 391.639 589.006 C 391.545 597.212 393.074 603.212 398.125 609.75 C 405.638 615.629 414.398 618.265 423.5 620.687 C 424.563 620.982 425.627 621.276 426.723 621.58 C 440.046 625.217 452.819 627.124 466.633 627.238 C 467.62 627.248 468.607 627.257 469.624 627.267 C 499.072 627.79 499.072 627.79 528 623 C 529.229 622.678 529.229 622.678 530.483 622.35 C 546.642 617.968 561.752 610.492 570.375 595.5 C 576.208 584.681 576.875 571.085 574.125 559.226 C 567.692 541.409 554.946 531.175 538.466 523.127 C 531.822 520.089 524.867 517.837 517.941 515.539 C 513.195 513.963 508.465 512.337 503.734 510.714 C 502.803 510.396 501.871 510.077 500.911 509.749 C 489.851 505.95 479.021 501.634 468.177 497.263 C 463.835 495.536 459.465 493.89 455.093 492.241 C 418.402 478.359 418.402 478.359 402.336 468.109 C 399.498 466.314 396.641 464.657 393.703 463.038 C 380.784 455.897 369.588 447.243 359 437 C 358.018 436.07 357.036 435.14 356.055 434.21 C 350.215 428.562 345.332 422.867 341 416 C 340.451 415.203 339.902 414.406 339.336 413.585 C 334.873 406.677 332.023 399.318 329.187 391.625 C 328.802 390.597 328.417 389.57 328.02 388.511 C 323.568 375.997 322.665 363.638 322.75 350.437 C 322.742 349.226 322.735 348.015 322.727 346.767 C 322.75 335.812 323.99 325.185 327.187 314.687 C 327.401 313.978 327.615 313.268 327.835 312.537 C 330.268 304.743 333.454 297.345 337 290 C 337.297 289.379 337.595 288.758 337.901 288.118 C 356.725 249.424 388.319 227.017 428.1 212.979 C 457.663 203 457.663 203 468 203 C 467.991 202.3 467.983 201.6 467.974 200.879 C 467.892 188.661 468.726 176.494 469.489 164.307 C 469.666 161.465 469.832 158.623 469.989 155.78 C 470.18 152.315 470.39 148.852 470.612 145.39 C 470.732 143.447 470.835 141.503 470.937 139.559 C 471.017 138.376 471.097 137.194 471.179 135.976 C 471.241 134.94 471.303 133.904 471.367 132.836 C 472.299 128.659 474.361 126.157 477.833 123.705 C 480.833 122.728 483.523 122.729 486.677 122.709 Z M 268.042 457.831 C 256.565 462.196 249.122 472.943 244.081 483.701 C 243.208 485.627 242.326 487.55 241.438 489.47 C 240.714 491.032 240.714 491.032 240.004 492.562 C 238.481 495.86 236.932 499.136 235.316 502.39 C 234.729 503.554 234.159 504.683 233.59 505.812 C 232.477 508.042 231.364 510.271 230.25 512.5 C 228.305 516.274 226.401 519.986 225 524 C 224.846 528.346 225.06 529.987 228.005 533.16 C 231.476 535.292 233.505 535.473 237.491 535.508 C 238.363 535.495 239.21 535.482 240.057 535.469 C 242.925 535.476 245.792 535.477 248.66 535.453 C 250.71 535.434 252.76 535.423 254.81 535.418 C 259.085 535.414 263.358 535.406 267.632 535.38 C 273.193 535.34 278.754 535.306 284.314 535.295 C 289.695 535.285 295.076 535.271 300.457 535.25 C 301.505 535.246 302.522 535.242 303.539 535.238 C 306.518 535.228 309.497 535.216 312.476 535.196 C 313.403 535.19 314.302 535.183 315.202 535.177 C 321.384 535.157 326.222 535.356 331 531 C 335.592 525.62 336.578 520.941 336.618 513.963 C 336.598 512.801 336.578 511.674 336.559 510.546 C 336.554 508.13 336.547 505.713 336.537 503.296 C 336.487 499.508 336.437 495.722 336.426 491.933 C 336.422 489.448 336.413 486.964 336.398 484.479 C 336.389 483.269 336.38 482.095 336.371 480.921 C 336.366 479.752 336.36 478.616 336.355 477.481 C 336.338 476.394 336.322 475.339 336.306 474.284 C 336.237 468.251 334.278 465.201 330.609 460.464 C 325.905 456.182 321.223 455.639 315.132 455.557 C 313.592 455.562 313.592 455.562 312.082 455.566 C 309.919 455.555 307.755 455.547 305.592 455.541 C 302.206 455.554 298.821 455.562 295.435 455.533 C 293.219 455.512 291.003 455.501 288.788 455.499 C 287.169 455.501 287.169 455.501 285.582 455.503 C 279.349 455.433 273.971 455.775 268.042 457.831 Z" fill="#FEFEFE"/>
    <path d="M 708.797 630.695 C 710.304 630.736 710.304 630.736 711.842 630.777 C 712.923 630.767 714.005 630.756 715.12 630.745 C 718.741 630.721 722.357 630.769 725.978 630.817 C 728.575 630.815 731.173 630.809 733.77 630.798 C 740.09 630.781 746.408 630.816 752.728 630.869 C 760.092 630.929 767.456 630.935 774.821 630.938 C 787.966 630.945 801.11 630.999 814.254 631.081 C 826.998 631.16 839.741 631.209 852.485 631.224 C 853.662 631.226 853.662 631.226 854.863 631.227 C 856.444 631.229 858.024 631.231 859.605 631.233 C 860.385 631.234 861.165 631.235 861.968 631.235 C 863.135 631.237 863.135 631.237 864.326 631.238 C 876.484 631.253 888.642 631.291 900.8 631.334 C 904.469 631.346 908.138 631.358 911.807 631.366 C 920.176 631.387 928.545 631.421 936.914 631.478 C 939.448 631.493 941.982 631.503 944.517 631.508 C 947.98 631.515 951.442 631.541 954.904 631.572 C 955.904 631.57 956.905 631.568 957.935 631.566 C 965.217 631.661 971.383 632.945 977.75 636.562 C 985.105 644.531 985.736 652.989 985.629 663.441 C 985.63 664.818 985.632 666.195 985.636 667.571 C 985.639 670.44 985.625 673.308 985.597 676.177 C 985.563 679.83 985.569 683.483 985.588 687.136 C 985.598 689.974 985.589 692.811 985.574 695.648 C 985.567 697.642 985.574 699.637 985.581 701.631 C 985.45 711.837 983.417 719.751 976 727 C 967.709 732.982 956.852 733.128 947 733 C 947.046 731.768 947.093 730.535 947.141 729.266 C 947.401 719.45 947.22 711.071 943 702 C 942.576 701.069 942.152 700.139 941.715 699.18 C 932.984 681.717 916.601 668.7 898.488 662.102 C 877.613 655.509 857.604 657.452 838 667 C 822.021 676.257 810.391 690.117 803 707 C 800.466 703.862 798.772 700.615 797 697 C 793.024 689.533 787.979 683.929 782 678 C 781.219 677.185 780.438 676.371 779.633 675.531 C 766.492 662.611 749.563 657.829 731.5 657.625 C 710.697 657.839 694.626 664.868 679.602 679.305 C 664.202 695.335 661.105 711.901 659 734 C 631.94 734 604.88 734 577 734 C 578 732 578 732 579.708 731.269 C 580.44 731.045 581.172 730.821 581.926 730.59 C 582.743 730.332 583.559 730.074 584.401 729.808 C 585.687 729.408 585.687 729.408 587 729 C 607.33 722.383 626.411 713.694 643 700 C 643.88 699.319 644.761 698.639 645.668 697.937 C 658.509 687.858 669.319 676.09 679 663 C 679.73 662.019 680.459 661.038 681.211 660.027 C 684.385 655.704 687.483 651.328 690.562 646.937 C 691.103 646.179 691.644 645.42 692.202 644.639 C 694.021 642.048 694.021 642.048 695.486 639.373 C 699.134 633.247 701.58 630.864 708.797 630.695 Z" fill="#FCFEFD"/>
    <path d="M 232 696 C 242.155 704.955 248.294 718.078 249.246 731.461 C 249.674 744.248 246.665 753.829 239 764 C 238.423 764.866 237.845 765.733 237.25 766.625 C 227.307 777.12 214.289 781.686 200.125 782.375 C 187.191 782.047 175.159 775.591 165.813 766.961 C 156.57 756.961 153.335 743.975 153.459 730.672 C 154.016 717.272 160.631 705.949 170.125 696.75 C 187.722 681.87 213.879 682.144 232 696 Z" fill="#FDFEFE"/>
    <path d="M 759.125 698.527 C 766.814 704.716 772.967 714.308 774.302 724.244 C 774.437 726.609 774.468 728.944 774.438 731.313 C 774.429 732.147 774.421 732.982 774.412 733.841 C 774.082 745.948 769.596 754.023 761.379 762.715 C 752.147 771.415 739.657 774.541 727.309 774.313 C 716.801 773.32 707.442 767.892 700.25 760.313 C 693.255 751.808 689.38 740.533 689.688 729.512 C 691.323 716.363 697.275 705.514 707.273 696.98 C 723.637 685.095 743.172 687.061 759.125 698.527 Z" fill="#FDFEFE"/>
    <path d="M 897.625 695.563 C 906.141 702.151 911.802 709.702 915 720 C 915.191 720.598 915.382 721.196 915.578 721.813 C 917.425 731.39 916.802 741.458 912 750 C 911.576 750.767 911.152 751.534 910.715 752.324 C 904.891 761.878 895.988 769.443 885.103 772.54 C 872.829 775.226 861.011 773.076 850.516 766.426 C 840.431 759.167 834.041 749.284 832 737 C 830.855 725.289 833.948 714.553 841.098 705.211 C 855.397 688.592 878.833 682.802 897.625 695.563 Z" fill="#FDFEFE"/>
  </g>
</svg>